:SAMPLES-PER-SECOND 30
:FULLY-SPECIFIED
:DEGREES
103
root  77.7325 38.3343 -6.57023 -121.469 80.0622 -123.304
RightUpLeg  -18.2427 11.2874 11.6364
RightLeg  21.5149 -1.27316 -4.83394
RightFoot  -3.96332 0.415487 -5.1623
RightToes  1.74622e-010 -3.18055e-015 8.94531e-016
Spine  1.5281 -1.47146 10.0262
Spine1  13.9934 -1.43325 2.41305
HEad  -14.4627 -1.42736 2.65239
LeftShoulder1  0 0 -2.47967e-037
LeftArm  -10.3477 32.7114 -87.865
LeftForeArm  -7.2633 -6.30771 -6.59045
LeftHand  1.00925 7.09548 -12.0458
RightShoulder  -2.48481e-017 0 -8.08114e-019
RightArm  17.7735 -30.6923 85.7893
RightForeArm  -51.5722 20.6128 -13.9266
RightHand  1.52789 -11.7937 -7.73183
LeftUpLeg  -10.7654 -9.84346 7.46894
LeftLeg  56.1323 -10.6542 1.61034
LeftFoot  12.8887 1.1797 -4.92014
LeftToes  -1.45516e-011 5.53925e-011 1.30052e-011
104
root  79.4973 38.7459 -6.54492 -125.675 80.8316 -127.31
RightUpLeg  -13.8512 9.98422 11.6591
RightLeg  19.2225 -0.371688 -4.60909
RightFoot  -4.77489 0.382763 -5.2154
RightToes  1.74622e-010 -3.18055e-015 8.94531e-016
Spine  0.884396 -0.741405 9.82183
Spine1  13.5023 -0.420889 1.33027
HEad  -13.8595 -2.46222 3.01771
LeftShoulder1  0 0 -2.47967e-037
LeftArm  -11.6332 37.4128 -85.2635
LeftForeArm  -8.42455 -4.64026 -7.0095
LeftHand  1.04514 8.63626 -13.4254
RightShoulder  -2.48481e-017 0 -8.08114e-019
RightArm  21.743 -29.0965 85.6095
RightForeArm  -57.7353 22.5448 -21.4031
RightHand  1.45875 -11.5142 -7.25616
LeftUpLeg  -15.5797 -9.71943 6.13908
LeftLeg  55.0218 -10.0542 2.43841
LeftFoot  9.97336 0.788731 -3.68968
LeftToes  -1.45516e-011 5.53925e-011 1.30052e-011
105
root  81.2501 39.079 -6.53797 -127.129 81.7761 -128.406
RightUpLeg  -9.5325 7.99577 11.5745
RightLeg  17.1429 1.82762 -3.94303
RightFoot  -4.61727 0.383268 -5.13045
RightToes  1.74622e-010 -3.18055e-015 8.94531e-016
Spine  0.309012 0.22073 9.85637
Spine1  13.3354 0.825694 0.0473516
HEad  -13.4767 -3.46764 2.75493
LeftShoulder1  0 0 -2.47967e-037
LeftArm  -12.7607 41.5168 -81.6035
LeftForeArm  -8.32192 -3.99728 -6.72724
LeftHand  1.06774 8.91706 -11.3482
RightShoulder  -2.48481e-017 0 -8.08114e-019
RightArm  16.1177 -27.1037 84.4774
RightForeArm  -52.0195 26.5327 -23.8799
RightHand  1.40601 -11.2768 -6.94583
LeftUpLeg  -19.6166 -8.80053 5.10823
LeftLeg  51.5334 -9.33484 2.9117
LeftFoot  7.51 0.773091 -4.07077
LeftToes  -1.45516e-011 5.53925e-011 1.30052e-011
106
root  82.973 39.3209 -6.55359 -124.415 82.8392 -125.318
RightUpLeg  -5.44505 6.60929 11.3316
RightLeg  15.3049 3.71974 -3.24389
RightFoot  -4.41757 0.357872 -4.67139
RightToes  1.74622e-010 -3.18055e-015 8.94531e-016
Spine  -0.19879 1.31791 10.1338
Spine1  13.4126 2.18468 -1.40401
HEad  -13.1521 -4.36163 1.90418
LeftShoulder1  0 0 -2.47967e-037
LeftArm  -11.0629 44.9441 -77.529
LeftForeArm  -5.42137 -4.64068 -6.06776
LeftHand  1.00939 7.37599 -7.70617
RightShoulder  -2.48481e-017 0 -8.08114e-019
RightArm  14.4552 -24.635 83.1921
RightForeArm  -49.2782 30.0377 -26.4324
RightHand  1.39458 -11.1648 -7.10334
LeftUpLeg  -22.7857 -7.01961 4.43854
LeftLeg  45.5339 -8.47159 2.96604
LeftFoot  5.01311 0.705074 -4.24809
LeftToes  -1.45516e-011 5.53925e-011 1.30052e-011
107
root  84.6462 39.41 -6.59329 -119.553 83.6483 -120.265
RightUpLeg  -1.93826 5.6281 11.1017
RightLeg  14.1013 4.93399 -2.77541
RightFoot  -5.08755 0.286868 -4.05639
RightToes  1.74622e-010 -3.18055e-015 8.94531e-016
Spine  -0.501111 2.23784 10.624
Spine1  13.2689 3.34674 -2.82637
HEad  -12.5355 -5.48233 0.738141
LeftShoulder1  0 0 -2.47967e-037
LeftArm  -7.46147 47.7917 -73.1829
LeftForeArm  -2.76227 -5.97632 -5.34197
LeftHand  0.855107 5.76333 -4.33288
RightShoulder  -2.48481e-017 0 -8.08114e-019
RightArm  14.5989 -21.876 82.0706
RightForeArm  -48.2008 32.52 -28.341
RightHand  1.40734 -11.1497 -7.46181
LeftUpLeg  -24.9726 -5.1762 4.0706
LeftLeg  36.8617 -7.64096 2.39031
LeftFoot  3.7432 0.580702 -3.78102
LeftToes  -1.45516e-011 5.53925e-011 1.30052e-011
108
root  86.2989 39.4227 -6.63931 -116.048 84.3576 -116.721
RightUpLeg  1.48067 4.70597 10.6202
RightLeg  12.7464 5.76063 -2.35829
RightFoot  -5.74561 0.253338 -3.89842
RightToes  1.74622e-010 -3.18055e-015 8.94531e-016
Spine  -0.892029 2.93701 10.5798
Spine1  13.4044 4.19345 -3.92531
HEad  -12.1396 -7.02592 -0.218432
LeftShoulder1  0 0 -2.47967e-037
LeftArm  -4.2256 49.8697 -68.7046
LeftForeArm  -3.66163 -7.26405 -4.70708
LeftHand  0.782503 5.33921 -2.78629
RightShoulder  -2.48481e-017 0 -8.08114e-019
RightArm  14.6979 -19.2821 81.3066
RightForeArm  -47.9358 34.1841 -29.6654
RightHand  1.43436 -11.2452 -7.71824
LeftUpLeg  -25.9318 -4.40783 3.8
LeftLeg  25.5394 -6.40912 1.46186
LeftFoot  3.83278 0.57099 -3.68733
LeftToes  -1.45516e-011 5.53925e-011 1.30052e-011
109
root  87.9361 39.4408 -6.68897 -112.637 85.2113 -113.268
RightUpLeg  5.18655 3.92913 9.79549
RightLeg  10.6815 6.37286 -1.93179
RightFoot  -5.6963 0.250732 -3.83431
RightToes  1.74622e-010 -3.18055e-015 8.94531e-016
Spine  -1.68824 3.53514 9.83769
Spine1  14.731 4.92613 -4.6844
HEad  -14.1534 -7.90599 0.363068
LeftShoulder1  0 0 -2.47967e-037
LeftArm  -2.43823 50.9504 -64.6908
LeftForeArm  -7.11571 -8.20288 -4.20772
LeftHand  0.82092 5.68858 -2.7954
RightShoulder  -2.48481e-017 0 -8.08114e-019
RightArm  13.9809 -17.1163 80.9308
RightForeArm  -47.7803 35.3235 -30.6108
RightHand  1.4676 -11.4202 -7.80017
LeftUpLeg  -25.7643 -4.27326 3.34199
LeftLeg  12.4659 -5.30403 0.613685
LeftFoot  4.11001 0.776351 -4.96871
LeftToes  -1.45516e-011 5.53925e-011 1.30052e-011
110
root  89.5932 39.3566 -6.7851 -105.832 85.8288 -106.398
RightUpLeg  8.53513 3.33021 9.04645
RightLeg  9.36042 6.90412 -1.60821
RightFoot  -5.87694 0.188923 -2.93525
RightToes  1.74622e-010 -3.18055e-015 8.94531e-016
Spine  -2.63757 3.93974 9.54886
Spine1  16.6203 5.6434 -5.60929
HEad  -18.3155 -7.85056 2.53938
LeftShoulder1  0 0 -2.47967e-037
LeftArm  -2.19686 51.2732 -61.5167
LeftForeArm  -9.03496 -8.13643 -4.03621
LeftHand  0.812722 5.71433 -2.17136
RightShoulder  -2.48481e-017 0 -8.08114e-019
RightArm  13.0187 -15.5591 81.1637
RightForeArm  -47.4108 35.7761 -31.0162
RightHand  1.48139 -11.498 -7.81251
LeftUpLeg  -25.4048 -2.23062 2.02715
LeftLeg  1.00721 -7.00252 0.484665
LeftFoot  3.16019 0.863549 -5.85123
LeftToes  -1.45516e-011 5.53925e-011 1.30052e-011
111
root  91.3387 39.0903 -6.95607 -97.9209 85.955 -98.6179
RightUpLeg  11.0068 3.04779 8.61908
RightLeg  9.75865 7.29681 -1.48599
RightFoot  -6.54376 0.0921023 -1.57224
RightToes  1.74622e-010 -3.18055e-015 8.94531e-016
Spine  -3.32978 4.02139 10.1614
Spine1  17.5863 6.21628 -7.04575
HEad  -21.7348 -7.712 4.6909
LeftShoulder1  0 0 -2.47967e-037
LeftArm  -3.24878 51.3086 -59.097
LeftForeArm  -7.58495 -6.57469 -4.29752
LeftHand  0.7178 5.24059 -0.143214
RightShoulder  -2.48481e-017 0 -8.08114e-019
RightArm  12.7772 -15.0285 82.0828
RightForeArm  -47.1335 35.4815 -30.7855
RightHand  1.47164 -11.4125 -7.91967
LeftUpLeg  -26.3924 -2.01757 2.09852
LeftLeg  -3.51402 -6.77419 0.386644
LeftFoot  0.645059 0.432626 -3.40494
LeftToes  -1.45516e-011 5.53925e-011 1.30052e-011
112
root  93.1939 38.7012 -7.17819 -88.4067 85.93 -89.6206
RightUpLeg  12.7394 3.55666 8.37442
RightLeg  11.2486 7.2107 -1.59705
RightFoot  -6.90763 0.0237185 -0.382538
RightToes  1.74622e-010 -3.18055e-015 8.94531e-016
Spine  -4.00067 4.12489 10.6563
Spine1  17.5397 6.6199 -8.18254
HEad  -22.9315 -8.13123 5.66235
LeftShoulder1  0 0 -2.47967e-037
LeftArm  -4.80177 51.3014 -57.6164
LeftForeArm  -5.27935 -4.06429 -4.76833
LeftHand  0.668949 5.14901 1.71125
RightShoulder  -2.48481e-017 0 -8.08114e-019
RightArm  13.6242 -15.9474 83.2741
RightForeArm  -47.4779 34.8979 -30.2775
RightHand  1.47313 -11.374 -8.09977
LeftUpLeg  -28.2008 -2.03192 2.39815
LeftLeg  -1.52855 -5.2149 0.773676
LeftFoot  0.0023444 -0.233909 1.80209
LeftToes  -1.45516e-011 5.53925e-011 1.30052e-011
113
root  95.1984 38.2121 -7.41004 -68.4076 86.1613 -70.2514
RightUpLeg  13.9022 5.11763 7.53265
RightLeg  14.028 6.3304 -1.65083
RightFoot  -7.18537 -0.0928562 1.8715
RightToes  1.74622e-010 -3.18055e-015 8.94531e-016
Spine  -5.0007 4.58273 9.64328
Spine1  17.3377 6.9385 -8.01991
HEad  -23.2923 -8.63451 6.26934
LeftShoulder1  0 0 -2.47967e-037
LeftArm  -6.19821 51.3464 -57.3819
LeftForeArm  -4.42262 -2.00224 -5.1678
LeftHand  0.736451 5.66371 2.33081
RightShoulder  -2.48481e-017 0 -8.08114e-019
RightArm  15.2713 -18.2066 84.5501
RightForeArm  -48.2125 34.086 -29.5684
RightHand  1.48648 -11.4637 -8.05408
LeftUpLeg  -29.6832 -2.39974 2.75547
LeftLeg  3.61253 -2.16241 1.55216
LeftFoot  4.00763 -0.603304 4.17691
LeftToes  -1.45516e-011 5.53925e-011 1.30052e-011
